<svg width="26" height="27" viewBox="0 0 26 27" fill="none" xmlns="http://www.w3.org/2000/svg">
<path fill-rule="evenodd" clip-rule="evenodd" d="M5.41667 10.6875C5.41667 6.85542 8.67742 3.375 13 3.375C17.3226 3.375 20.5833 6.85542 20.5833 10.6875C20.5833 13.1005 19.1617 15.7957 17.2907 18.2937C15.812 20.268 14.1671 21.9745 13 23.1687C11.8329 21.9745 10.188 20.268 8.7093 18.2937C6.83831 15.7957 5.41667 13.1005 5.41667 10.6875ZM13 1.125C7.57258 1.125 3.25 5.51958 3.25 10.6875C3.25 13.8995 5.07835 17.1106 6.99904 19.675C8.66111 21.8942 10.5294 23.8021 11.6971 24.9945C11.8984 25.2001 12.079 25.3845 12.234 25.5455C12.4371 25.7564 12.7127 25.875 13 25.875C13.2873 25.875 13.5629 25.7564 13.766 25.5455C13.9211 25.3845 14.1016 25.2001 14.3029 24.9946C15.4705 23.8021 17.3389 21.8942 19.001 19.675C20.9217 17.1106 22.75 13.8995 22.75 10.6875C22.75 5.51958 18.4274 1.125 13 1.125ZM13 14.0625C14.4958 14.0625 15.7083 12.8033 15.7083 11.25C15.7083 9.6967 14.4958 8.4375 13 8.4375C11.5042 8.4375 10.2917 9.6967 10.2917 11.25C10.2917 12.8033 11.5042 14.0625 13 14.0625Z" fill="#ECAB01"/>
</svg>
