<svg width="35" height="35" viewBox="0 0 35 35" fill="none" xmlns="http://www.w3.org/2000/svg">
<path fill-rule="evenodd" clip-rule="evenodd" d="M17.4066 2.36348e-07H17.5934C21.3513 -1.60427e-05 24.2962 -3.23951e-05 26.594 0.308895C28.9458 0.6251 30.8018 1.28496 32.2584 2.74162C33.7151 4.19829 34.3749 6.05414 34.6912 8.40604C35 10.7038 35 13.6487 35 17.4066V17.5934C35 21.3513 35 24.2962 34.6912 26.594C34.3749 28.9458 33.7151 30.8018 32.2584 32.2584C30.8018 33.7151 28.9458 34.3749 26.594 34.6912C24.2962 35 21.3513 35 17.5934 35H17.4066C13.6487 35 10.7038 35 8.40604 34.6912C6.05414 34.3749 4.19829 33.7151 2.74162 32.2584C1.28496 30.8018 0.6251 28.9458 0.308895 26.594C-3.23951e-05 24.2962 -1.60427e-05 21.3513 2.36348e-07 17.5934V17.4066C-1.60427e-05 13.6487 -3.23951e-05 10.7038 0.308895 8.40604C0.6251 6.05414 1.28496 4.19829 2.74162 2.74162C4.19829 1.28496 6.05414 0.6251 8.40604 0.308895C10.7038 -3.23951e-05 13.6487 -1.60427e-05 17.4066 2.36348e-07ZM8.73141 2.72897C6.65028 3.00878 5.39562 3.54093 4.46828 4.46828C3.54093 5.39562 3.00878 6.65028 2.72897 8.73141C2.44445 10.8477 2.44186 13.6285 2.44186 17.5C2.44186 21.3715 2.44445 24.1523 2.72897 26.2686C3.00878 28.3497 3.54093 29.6043 4.46828 30.5317C5.39562 31.4591 6.65028 31.9913 8.73141 32.271C10.8477 32.5555 13.6285 32.5581 17.5 32.5581C21.3715 32.5581 24.1523 32.5555 26.2686 32.271C28.3497 31.9913 29.6043 31.4591 30.5317 30.5317C31.4591 29.6043 31.9913 28.3497 32.271 26.2686C32.5555 24.1523 32.5581 21.3715 32.5581 17.5C32.5581 13.6285 32.5555 10.8477 32.271 8.73141C31.9913 6.65028 31.4591 5.39562 30.5317 4.46828C29.6043 3.54093 28.3497 3.00878 26.2686 2.72897C24.1523 2.44445 21.3715 2.44186 17.5 2.44186C13.6285 2.44186 10.8477 2.44445 8.73141 2.72897ZM17.5 12.2093C14.5781 12.2093 12.2093 14.5781 12.2093 17.5C12.2093 20.4219 14.5781 22.7907 17.5 22.7907C20.4219 22.7907 22.7907 20.4219 22.7907 17.5C22.7907 14.5781 20.4219 12.2093 17.5 12.2093ZM9.76744 17.5C9.76744 13.2294 13.2294 9.76744 17.5 9.76744C21.7707 9.76744 25.2326 13.2294 25.2326 17.5C25.2326 21.7707 21.7707 25.2326 17.5 25.2326C13.2294 25.2326 9.76744 21.7707 9.76744 17.5Z" fill="#ECAB01"/>
</svg>
