<svg width="46" height="25" viewBox="0 0 46 25" fill="none" xmlns="http://www.w3.org/2000/svg">
<g clip-path="url(#clip0_159_25184)">
<path d="M14.1035 15.8117C12.0945 17.5496 10.9622 19.7699 10.9622 21.7623C10.9622 22.3476 11.107 22.8938 11.3843 23.3632H2.12717C0.592223 23.3632 0 22.7614 0 21.6781C0 18.3439 3.4083 14.3358 8.85916 14.3358C10.9266 14.3358 12.7001 14.9124 14.1035 15.8117ZM13.0651 7.86008C13.0651 10.472 11.1193 12.4941 8.85916 12.4941C6.61114 12.4941 4.65318 10.472 4.65318 7.88415C4.65318 5.32037 6.62322 3.3584 8.85916 3.3584C11.1072 3.3584 13.0651 5.27221 13.0651 7.86008Z" fill="#FFEE93"/>
<path d="M45.553 21.6781C45.553 22.7614 44.9608 23.3632 43.4259 23.3632H34.1833C34.4594 22.8938 34.603 22.3476 34.603 21.7623C34.603 19.7684 33.4719 17.5462 31.4619 15.8079C32.8641 14.9108 34.6368 14.3358 36.706 14.3358C42.1568 14.3358 45.553 18.3439 45.553 21.6781ZM40.9119 7.86008C40.9119 10.472 38.9661 12.4941 36.706 12.4941C34.458 12.4941 32.4879 10.472 32.4879 7.88415C32.4879 5.32037 34.458 3.3584 36.706 3.3584C38.954 3.3584 40.9119 5.27221 40.9119 7.86008Z" fill="#FC5F5F"/>
<path d="M22.7948 12.2176C25.3812 12.2176 27.6292 9.90657 27.6292 6.89742C27.6292 3.92438 25.3812 1.72168 22.7948 1.72168C20.2083 1.72168 17.9602 3.97253 17.9602 6.92149C17.9602 9.90657 20.1963 12.2176 22.7948 12.2176ZM14.6729 23.3635H30.8924C32.1857 23.3635 32.9593 22.7617 32.9593 21.7626C32.9593 18.6571 29.0554 14.3722 22.7826 14.3722C16.522 14.3722 12.6182 18.6571 12.6182 21.7626C12.6182 22.7617 13.3917 23.3635 14.6729 23.3635Z" fill="#ECAB01"/>
</g>
<defs>
<clipPath id="clip0_159_25184">
<rect width="46" height="25" fill="white"/>
</clipPath>
</defs>
</svg>
