<svg width="20" height="26" viewBox="0 0 20 26" fill="none" xmlns="http://www.w3.org/2000/svg">
<path fill-rule="evenodd" clip-rule="evenodd" d="M2.01928 0C0.329277 0 -0.610296 2.21494 0.44544 3.71017L8.99226 15.8149V22.8361H3.95352C3.39696 22.8361 2.94577 23.3473 2.94577 23.9779C2.94577 24.6085 3.39696 25.1197 3.95352 25.1197H16.0465C16.6031 25.1197 17.0542 24.6085 17.0542 23.9779C17.0542 23.3473 16.6031 22.8361 16.0465 22.8361H11.0078V15.8149L19.5546 3.71017C20.6103 2.21494 19.6708 0 17.9808 0H2.01928ZM5.24407 6.85083L2.01928 2.28361H17.9808L14.756 6.85083H5.24407ZM6.85647 9.13444L10 13.5866L13.1436 9.13444H6.85647Z" fill="#ECAB01"/>
</svg>
